<svg width="50" height="29" viewBox="0 0 50 29" fill="none" xmlns="http://www.w3.org/2000/svg">
<path d="M44.5053 20.3284C44.5053 20.3284 48.5478 24.3789 49.5478 26.2532C49.5672 26.2802 49.5824 26.3102 49.5928 26.342C50.0003 27.0344 50.1003 27.5771 49.9003 27.9779C49.5628 28.6398 48.4203 28.9721 48.0328 29H40.8878C40.3903 29 39.3553 28.8681 38.0953 27.9855C37.1328 27.3032 36.1753 26.1796 35.2478 25.0814C33.8628 23.4506 32.6653 22.0353 31.4528 22.0353C31.2996 22.035 31.1475 22.0607 31.0028 22.1114C30.0853 22.4056 28.9203 23.7321 28.9203 27.2652C28.9203 28.371 28.0603 29 27.4578 29H24.1852C23.0702 29 17.2652 28.6043 12.1177 23.098C5.81023 16.3566 0.145225 2.83304 0.0902252 2.71384C-0.262275 1.83881 0.477726 1.36199 1.27773 1.36199H8.49273C9.46024 1.36199 9.77524 1.95548 9.99524 2.48811C10.2502 3.09935 11.1952 5.54434 12.7452 8.29115C15.2552 12.7601 16.7977 14.5786 18.0302 14.5786C18.2618 14.5793 18.4894 14.5181 18.6902 14.4011C20.3002 13.5032 20.0002 7.66976 19.9252 6.46755C19.9252 6.23421 19.9227 3.86278 19.0977 2.71637C18.5077 1.89461 17.5027 1.57504 16.8952 1.45837C17.0577 1.21996 17.4027 0.854731 17.8452 0.639146C18.9477 0.0811611 20.9402 0 22.9177 0H24.0152C26.1603 0.0304355 26.7153 0.169932 27.4953 0.370299C29.0653 0.750743 29.0953 1.78302 28.9578 5.29832C28.9178 6.30269 28.8753 7.43388 28.8753 8.76544C28.8753 9.0495 28.8628 9.36654 28.8628 9.68865C28.8153 11.492 28.7528 13.5235 30.0078 14.358C30.1705 14.4608 30.3585 14.5153 30.5503 14.5152C30.9853 14.5152 32.2878 14.5152 35.8203 8.3647C37.3703 5.64833 38.5703 2.44499 38.6528 2.20404C38.7228 2.06962 38.9328 1.69171 39.1878 1.53953C39.3692 1.44162 39.5723 1.39271 39.7778 1.3975H48.2653C49.1903 1.3975 49.8178 1.53953 49.9403 1.89461C50.1453 2.47035 49.9003 4.228 46.0253 9.54408C45.3728 10.4292 44.8003 11.1952 44.2978 11.8648C40.7853 16.5417 40.7853 16.7776 44.5053 20.3284Z" fill="#FBFBFB" fill-opacity="0.5"/>
</svg>
