<svg width="22" height="22" viewBox="0 0 22 22" fill="none" xmlns="http://www.w3.org/2000/svg">
<path d="M8.64995 12.1879C8.21717 11.7525 7.46287 11.7525 7.03009 12.1879L1.12498 18.1341L0.311209 21.1397L0.112083 21.3402C-0.0367823 21.4901 -0.037166 21.732 0.109781 21.8831L0.107862 21.8908L0.115152 21.8889C0.189585 21.9623 0.28627 22.0001 0.383339 22.0001C0.48156 22.0001 0.57978 21.9623 0.654596 21.8869L0.854106 21.686L3.83831 20.8665L9.74304 14.9199C10.1896 14.4702 10.1896 13.7384 9.74304 13.2887L8.64995 12.1879ZM2.01088 18.335L5.94084 14.3775L7.56876 16.0168L3.6388 19.9744L2.01088 18.335ZM1.66481 19.0792L2.90023 20.3233L1.20133 20.79L1.66481 19.0792ZM9.20052 14.3736L8.11128 15.4705L6.48335 13.8311L7.5726 12.7342C7.71532 12.5901 7.96433 12.5901 8.10705 12.7342L9.20052 13.8354C9.34785 13.9834 9.34785 14.2252 9.20052 14.3736Z" fill="white"/>
<path d="M21.7781 15.8057C21.0076 14.3391 18.3323 12.7488 18.2145 12.6792C17.7242 12.398 17.217 12.3091 16.7869 12.4296C16.463 12.5197 16.1991 12.726 16.021 13.0266C15.6297 13.4983 15.144 14.0489 15.0266 14.1347C14.1176 14.754 13.396 14.6814 12.6113 13.8917L8.20448 9.45383C7.41987 8.6637 7.34774 7.93617 7.962 7.02318C8.04795 6.90379 8.59506 6.41503 9.06314 6.02055C9.36164 5.84128 9.56652 5.57545 9.6563 5.24936C9.77562 4.81547 9.68776 4.30507 9.40615 3.80782C9.33977 3.69345 7.75981 0.998913 6.30415 0.223471C5.56558 -0.170239 4.67163 -0.0350101 4.08039 0.560385L3.10701 1.54022C0.792695 3.87079 0.716728 6.71833 2.88716 9.77529C3.01032 9.94838 3.24935 9.98856 3.42239 9.86454C3.59466 9.74051 3.63456 9.49903 3.5114 9.32517C1.53357 6.54022 1.57846 4.17255 3.64952 2.08654L4.6229 1.10632C4.97511 0.752796 5.50611 0.672432 5.94504 0.905799C7.20847 1.57924 8.72897 4.17216 8.74201 4.19419C8.91428 4.49826 8.97989 4.81547 8.91735 5.04265C8.87898 5.18174 8.79304 5.28761 8.65492 5.36566L8.59737 5.40584C8.27009 5.68093 7.49162 6.34587 7.32818 6.58851C7.09337 6.93779 6.9376 7.28089 6.85626 7.61819C6.58347 7.07032 6.36286 6.43551 6.29034 5.73232C6.26847 5.52059 6.07932 5.373 5.86907 5.38768C5.65843 5.41009 5.50496 5.5998 5.52683 5.8123C5.80384 8.49872 7.87836 10.2474 7.96661 10.3205C7.9762 10.3286 7.98809 10.3313 7.99807 10.3382L12.0692 14.4384C12.0865 14.4558 12.1041 14.4708 12.1218 14.4882C12.1352 14.5079 12.144 14.5299 12.1617 14.5473C12.2342 14.6196 13.9665 16.3119 16.6119 16.5885C16.6253 16.5897 16.6388 16.5904 16.6518 16.5904C16.8459 16.5904 17.0125 16.4425 17.0332 16.2443C17.055 16.0318 16.902 15.8421 16.6909 15.8196C15.8799 15.735 15.1612 15.4955 14.5619 15.2177C14.8558 15.1288 15.1543 14.9812 15.457 14.7749C15.698 14.6103 16.3587 13.826 16.6315 13.4964L16.6714 13.4384C16.7489 13.2994 16.854 13.2128 16.9921 13.1742C17.2181 13.11 17.5327 13.1769 17.8308 13.348C17.8569 13.3635 20.4314 14.8943 21.1001 16.167C21.3326 16.6098 21.2524 17.1445 20.901 17.4984L19.9276 18.4786C17.8585 20.5616 15.4037 20.582 12.6313 18.5397C12.4606 18.413 12.22 18.4512 12.0953 18.6231C11.9702 18.7955 12.0074 19.0369 12.1786 19.1629C13.6879 20.2753 15.1455 20.8309 16.5164 20.8309C17.9429 20.8309 19.2746 20.2285 20.4705 19.0246L21.4439 18.0444C22.0347 17.4497 22.169 16.5499 21.7781 15.8057Z" fill="white"/>
</svg>
